# xmcd
#
# Track frame offsets:
#	150
#	7662
#	16370
#	23937
#	36347
#	48652
#	64450
#	79397
#	91075
#	102355
#	109022
#	121640
#
# Disc length: 1866 seconds
#
# Revision: 0
# Processed by: cddbd v1.4PL0 Copyright (c) Steve Scherf et al.
# Submitted via: dBpowerAMP V4.0
#
DISCID=9007480c
DTITLE=Chad Morgan - Chad Morgan Live!
DYEAR=1900
DGENRE=Comedy
TTITLE0=Sheik of Scrubby Creek
TTITLE1=If I Could Just Go Back (If I Knew Then What I Know Now)
TTITLE2=Fatal Wedding
TTITLE3=All So Nice in the Nuthouse
TTITLE4=Nobody Else But Little Me
TTITLE5=One of the Mob
TTITLE6=Shotgun Wedding
TTITLE7=Chook Song 
TTITLE8=Duckinwilla Dance
TTITLE9=Here I Am
TTITLE10=Banana Boat
TTITLE11=Pistol Packin' Mama
EXTD=
EXTT0=
EXTT1=
EXTT2=
EXTT3=
EXTT4=
EXTT5=
EXTT6=
EXTT7=
EXTT8=
EXTT9=
EXTT10=
EXTT11=
PLAYORDER=
